<svg xmlns="http://www.w3.org/2000/svg" viewBox="0 0 839.51763 115.3965"><title>tapastinder</title><g id="f7411205-368f-46c3-9bd1-0d76f5d279c5" data-name="Layer 2"><g id="f9a53d40-0eb1-46a2-9ab4-939e827a7c82" data-name="bull"><path d="M74.63011,37.26947c-.275.36629-.55009.64134-.82249,1.0063A2.39171,2.39171,0,0,1,73.165,38.002c.09257.27372.18249.54877.27505.54877.91506.09256.82514.73257.64,1.46515a50.30673,50.30673,0,0,1-8.33073.91638c-2.01524,0-4.03048.27372-6.04573.36629-1.92268.09124-3.75279,0-5.67547.09124-.64266,0-1.28267.1838-1.92533.1838-1.09754,0-2.19772-.09256-3.29526-.1838a1.00268,1.00268,0,0,0-.82514,1.55639,1.75121,1.75121,0,0,1,.275.91638c-.18248,1.55639-.45752,3.02154-.55009,4.57793a18.36583,18.36583,0,0,0-.18248,3.20535c-.08992,2.564-.08992,5.03679-.18248,7.6008,0,1.55639-.09257,3.11278-.18249,4.66918-.09256,2.38153-.275,4.8543-.36761,7.23451-.08991,2.10648.09257,4.12172-.08991,6.13565-.18513,1.64895.08991,3.29658-.73258,4.853-.27505.36628-.09256.55009.18248.64133q-.27372,1.64829-.55009,3.29659a1.72849,1.72849,0,0,1-.18248.64133c-.45753.36629-.45753.91506-.5501,1.46515-.18248.73258.18249.91506.73258,1.09887a8.6143,8.6143,0,0,0,.91506.45753c-.365.275-.8225.36628-.91506.64133-.18248.18248.18248.64.36761.91506a16.2526,16.2526,0,0,1-1.28267,1.09886c-.36761.18381-.73257.27505-1.10018.45885-2.56269.82382-5.218.64-7.78329.54877-1.64763-.09124-3.29526,0-4.853-.1838a5.222,5.222,0,0,1-2.56269-1.0063c-.64265-.36629-.09256-.91638.2724-1.19143a.70193.70193,0,0,0,.18513-.82382c-.18513-1.28134-.275-2.65525-.36761-3.9366-.08992-2.19772-.08992-4.39545-.18248-6.59317V79.3c.18248-2.7465.45753-5.493.64-8.24081.09256-2.38021.27505-4.853.36761-7.32576.08992-.36628.27505-.73257.365-1.09886.09256-.18381.18512-.36629.09256-.54877a4.87405,4.87405,0,0,1-.55009-3.02287c0-1.00762-.08992-2.01392-.08992-3.02154,0-.1838.08992-.45753.08992-.64133,0-1.19011,0-2.38021.09256-3.57031,0-2.01525,0-4.03049-.09256-6.04441a21.86024,21.86024,0,0,0-.27505-2.289,5.07345,5.07345,0,0,1,0-1.64895c.09256-.64134-.08992-.91506-.73257-.91506-2.28765,0-4.48537-.09124-6.77566-.18381a6.94968,6.94968,0,0,0-2.74782-.09124c-1.7402.36629-3.47775-.45753-5.128,0-1.09754.36629-2.10516-.09124-3.20535-.1838a10.056,10.056,0,0,0-2.83773.36761,2.98314,2.98314,0,0,1-3.02287-.18381,20.6895,20.6895,0,0,0-2.47013-1.1901,3.23525,3.23525,0,0,0-1.28266.27372c-.275,0-.45753-.09124-.73258-.09124.08992-.18248.08992-.45753.18248-.64133.27505-.45753.64-.91506.91506-1.46515a3.88981,3.88981,0,0,0,.18513-1.09755,22.33929,22.33929,0,0,1-.18513-2.38153c.09256-1.92268.09256-3.84668.18513-5.76936,0-.275-.18513-.64-.18513-.91505a3.43243,3.43243,0,0,1,.45753-1.00763c.09256-.09124.55009,0,.82514,0,.18248.09125.45753.18249.55009.09125.91506-1.09887,2.10516-.73258,3.20535-.64134,1.09754.09256,2.28764.27505,3.38783.36761a16.62183,16.62183,0,0,0,2.10516-.27505c1.55772-.09256,3.11278,0,4.57794-.09256,2.01524-.18248,4.12305-.365,6.13564-.45753,2.84039-.09124,5.67812-.09124,8.51586-.275,3.48039-.18249,6.86822-.365,10.34862-.54877,1.1901,0,2.38021.1838,3.57031.1838,2.10781,0,4.213-.1838,6.4107-.1838,2.1078,0,4.30553.1838,6.41069.36628.365,0,.82514-.09124,1.1901-.09124,2.01525,0,4.12041,0,6.22822.09124,1.28.09124,2.56269.27505,3.84536.27505.82249,0,1.74019-.09256,2.56269-.09256a13.67019,13.67019,0,0,1,1.92268.1838,4.117,4.117,0,0,0,1.00762-.09124,2.09413,2.09413,0,0,1,2.56533,1.83144c0,1.64763.08992,3.29659,0,4.853a30.81343,30.81343,0,0,1-.82513,4.21164c-.18249.64134-.5501,1.28267-.8225,2.01525C74.99772,37.727,74.8126,37.5432,74.63011,37.26947Z"/><path d="M210.47919,109.79442l.09257-.09124v1.0063l-.27505.36629-.45753.64133c-.36761,0-.73258,1.46515-1.00762,1.649a7.89682,7.89682,0,0,1-1.37259.45753l-1.92268.82381s-2.38285.36629-2.6579.36629c-.2724.09124-6.00341.09124-9.57372.36629-2.29029.1838-19.96466-1.1901-21.33725-2.9303a1.93885,1.93885,0,0,0-1.28267-.36629l-.365-.275s-3.02287-.64-3.66288-.82381a12.30939,12.30939,0,0,1-2.47277-1.19011c-.5501-.36628-4.39546-3.57163-4.39546-3.57163v.09124a2.00543,2.00543,0,0,0-.275-.45753,46.63713,46.63713,0,0,1-4.12041-6.13565c-.64265-1.37391-4.39545-8.6071-4.39545-8.6071a.31729.31729,0,0,0-.09256.18249V91.205a.3238.3238,0,0,1-.18248-.09125,10.605,10.605,0,0,1-.275-1.1901c-.73258-1.28267-1.37259-2.47277-2.10516-3.66288-1.10019-1.55771-2.38286-3.1141-3.573-4.67049l-.08992-.09257c-.73257-2.10516-2.38285-1.55639-3.93792-1.37258-1.28267.09124-2.65526.18248-4.03049.275-2.47277.27373-4.9429.45753-7.50823.64-3.02287.36629-6.13565.64134-9.24844.91638-1.00762.09124-2.01524,0-3.02286,0a2.48863,2.48863,0,0,0-.8225,0c-2.29028.64134-4.58057.09124-6.86822.18249h-5.58556a16.431,16.431,0,0,1-2.1078-.18249.98785.98785,0,0,0-1.00762.54877q-.82117,1.37457-1.64764,2.74782c-.55009.91506-1.1901,1.83144-1.74019,2.7465a6.67331,6.67331,0,0,0-.365,1.28267c-.09256.09124-.09256.18248-.18248.27372a21.6379,21.6379,0,0,1-1.7402,2.29029,3.92743,3.92743,0,0,1-1.1901.82382v-.18381c-.27505-.09124-.64266-.27372-.91771-.18248-1.00762.18248-2.10516.45753-3.11278.55009-1.1901.18248-2.38021.18248-3.57031.27373-.09257,0-.275-.09125-.36761-.09125-1.64764.73258-3.29527.27505-4.853-.09124a6.53,6.53,0,0,1-2.65526-1.28267,1.30193,1.30193,0,0,1-.36761-1.46515c.46018-1.1901.82514-2.289,1.28267-3.47907a4.16615,4.16615,0,0,1,.64266-1.46515,67.32359,67.32359,0,0,0,3.38783-6.777c1.37258-2.564,2.9303-4.94422,4.39545-7.417,1.00762-1.5564,1.83011-3.20535,2.83774-4.76174.64-1.09887,1.37258-2.19773,2.01524-3.29659.64-1.09887,1.37259-2.10649,2.01524-3.20535.8225-1.7402,1.64764-3.66288,2.56269-5.40307.82514-1.46515,1.7402-2.9303,2.56534-4.39545,1.09754-1.92268,2.10516-3.93661,3.2027-5.95185.55009-.91506,1.19275-1.92268,1.7402-2.9303.9177-1.64763,1.7402-3.47907,2.74782-5.128.82514-1.46515,1.83276-2.83906,2.74782-4.30421.45752-.73257,1.00762-1.37258,1.46515-2.10516a8.42573,8.42573,0,0,1,2.9303-3.02286,2.047,2.047,0,0,1,1.28267-.27373c1.37258,0,2.65525.09124,4.02784,0,1.46515,0,2.83773-.1838,4.30289-.275q2.4754-.27572,4.94554-.54877a3.03248,3.03248,0,0,1,.91506,0c.55009,0,1.00762.27372,1.55771-.18381a2.2642,2.2642,0,0,1,1.37259.64133,37.447,37.447,0,0,1,3.573,4.02917c1.37258,1.73887,2.56269,3.66288,3.93792,5.40175a73.21432,73.21432,0,0,1,4.30289,7.32575c1.92268,3.29791,3.75544,6.59318,5.67812,9.98233,1.09754,1.92268,2.19772,3.9366,3.38783,5.95185,1.1901,2.19772,2.3802,4.30421,3.75544,6.41069.82249,1.37259,1.92268,2.65526,2.83773,3.9366.64,1.00762,1.28267,2.10649,1.92268,3.11411.36761.64.91506,1.1901,1.28267,1.74019.45753.82382.8225,1.73888,1.28267,2.5627q2.05889,3.29658,4.1204,6.59317l3.57032,5.22059s1.64763,1.28135,1.92268,1.5564a21.97863,21.97863,0,0,1,2.29029,2.74649c.55009.64134,1.00762,1.28267,1.37258,1.7402a9.77549,9.77549,0,0,0,7.78328,3.29659c3.93793-.09124,7.87585-.45753,11.81377-.73258l6.82856-1.0063,1.55771,1.28135,2.28765.82381s1.92268,1.00763,2.01524,1.649a15.71936,15.71936,0,0,0,.55009,2.564c.275.36629-.18248,3.11279-.18248,3.11279l.2724,1.28267ZM133.691,64.92353c-3.02286-7.50824-6.86822-14.4677-10.62366-21.70221-.275.36628-.45753.45752-.5501.64133-.2724.45753-.54744,1.0063-.82249,1.46515-.09256.27372-.27505.45753-.36761.73257-.45753.82382-.82249,1.73888-1.28,2.564a20.007,20.007,0,0,0-1.55772,2.289c-1.00762,1.74019-1.83276,3.57163-2.74782,5.31183-1.28266,2.38021-2.56269,4.853-3.93792,7.23319a21.47461,21.47461,0,0,1-1.1901,1.92268c.275.09256.45753.275.73257.275,1.19011-.09124,2.47278-.09124,3.75544-.09124a32.52653,32.52653,0,0,1,4.213-.1838c1.73755,0,3.47775.1838,5.128.1838,2.38021-.09124,4.76042-.275,7.05071-.36629C132.22587,65.10733,133.04836,65.01609,133.691,64.92353Zm71.1127,47.61739h0Z"/><path d="M200.35008,90.83871c-.09256.55009-.64265.55009-1.19275.64133-1.46515.18248-3.02022.45753-4.48537.64134-1.00762.18248-1.92268.27372-2.84038.365-.91506.18381-1.73755.45885-2.56269.64134a24.29112,24.29112,0,0,1-2.65526.1838,1.80845,1.80845,0,0,0-1.64763.275c-.275.18248-.73257.09124-1.19275.18248a4.79071,4.79071,0,0,1-2.74517-.55009,5.8117,5.8117,0,0,1-1.19011-.91506.33347.33347,0,0,1-.09256-.27505c.365-.64.18248-1.64763,1.09754-2.10516.18513,0,.275-.36761.275-.55009-.18249-1.28267-.365-2.65526-.45753-3.93793-.08992-1.83143,0-3.57031-.08992-5.40307,0-1.37259-.09256-2.83774-.18513-4.21165-.08992-1.64895-.275-3.29658-.365-4.94422a16.57728,16.57728,0,0,1-.18249-3.02286,22.57958,22.57958,0,0,0-.36761-4.94422,21.80454,21.80454,0,0,1-.365-4.213c.2724-2.38021-.36761-4.66918-.36761-7.05071,0-.27505.09256-.64133.09256-.91638,0-1.1901,0-2.47145-.09256-3.75412,0-2.38021-.365-4.76174.45753-7.0507a4.34921,4.34921,0,0,0,0-1.09887,14.82283,14.82283,0,0,0-.18248-2.01524c-.09257-.91506-.18249-1.83012-.36761-2.7465,0-.64133-.08992-1.28134-.08992-2.01392.08992-1.28266.365-2.65657.45753-3.93792.09256-1.1901.45752-1.83144,1.28266-2.10648A2.31012,2.31012,0,0,1,181.393,25.822h3.573c.365,0,.73258.27505,1.09754.18381,1.19011-.09125,2.38021-.27505,3.57031-.36629,1.00763-.09124,2.10781-.27505,3.11543-.27505,1.19011,0,2.28765.09257,3.47775,0,1.37523,0,2.84038-.275,4.213-.275,1.28267,0,2.47277.1838,3.75544.1838h6.13565c2.74517.09124,5.58556.27505,8.33337.36629h.91506c1.7402,0,3.57031,0,5.31051.09124a25.95862,25.95862,0,0,1,2.83774.45885c1.46515.18248,2.9303.54877,4.39545.73258a21.0012,21.0012,0,0,1,7.05335,2.56269,39.94326,39.94326,0,0,1,4.76042,2.65657,35.64308,35.64308,0,0,1,3.93792,3.47908,30.71647,30.71647,0,0,1,3.20535,3.66287,20.32124,20.32124,0,0,1,3.57031,7.50956c0,.18248-.18248.45753-.18248.73258-.09256.45752-.18248.82381-.275,1.46515a2.86451,2.86451,0,0,0-.18248-1.00763h-.18248a2.68282,2.68282,0,0,0-.18513.91638,24.14279,24.14279,0,0,1-.54745,3.57032,11.89335,11.89335,0,0,1-1.19275,2.74782c-.18248.45752-.365,1.00762-.54744,1.46515-.275.54877-.5501.915-.82514,1.46515-.275.73257-.5501,1.55639-.82514,2.289a5.6806,5.6806,0,0,1-.91506,1.83144,13.97062,13.97062,0,0,1-3.48039,3.4804c-.45753.27372-1.09754.45753-1.64764.82381-1.55507,1.09887-3.11278,2.289-4.76041,3.29659a17.18864,17.18864,0,0,1-2.29029.91506,8.61946,8.61946,0,0,0-1.37259.55009,7.5864,7.5864,0,0,1-2.47277,1.09886,13.83584,13.83584,0,0,1-3.75544.82382c-.8225.09124-1.55507.09124-2.28765.18248a14.75071,14.75071,0,0,1-3.48039.09257c-.73258-.18381-1.55772.275-2.29029.275-1.19011.18249-2.38021.18249-3.57031.365a25.50036,25.50036,0,0,1-5.31051.55009c-.91771-.09124-1.92533-.18248-2.84039-.18248a25.45373,25.45373,0,0,0-2.65525-.09256c-.82514,0-1.7402.1838-2.56269.1838a18.07676,18.07676,0,0,1-2.19773-.275c-.55009-.09124-.82514,0-.82514.73258.09257,1.92268.09257,3.84668.09257,5.8606v1.46515q-.13886,2.74716-.275,5.49432a21.85739,21.85739,0,0,0,.275,2.289C200.71505,90.38118,200.35008,90.38118,200.35008,90.83871ZM199.8,58.23911c.45753,0,.82249.09124,1.1901.09124.91506.09256,1.83012.09256,2.83774.1838a18.98083,18.98083,0,0,0,3.93792.27373H210.146c1.37523-.09124,2.74782,0,4.213-.09124a20.11548,20.11548,0,0,0,2.10781-.36629c1.64763-.18248,3.38783-.45753,5.03546-.64,1.37259-.09257,2.65526-.18381,3.93792-.36761a21.07186,21.07186,0,0,0,3.20535-.91506c1.92268-.55009,4.02784-.82382,5.768-1.92268.55009-.36629,1.1901-.73257,1.37259-1.28267a6.97659,6.97659,0,0,0-.54745-5.40307,13.23586,13.23586,0,0,0-1.28267-1.83012,4.0669,4.0669,0,0,0-1.1901-1.28266,13.7659,13.7659,0,0,0-6.22822-2.83906c-1.37258-.27373-2.83773-.64134-4.21032-.91506-.18513-.09124-.46017,0-.73257,0a6.92665,6.92665,0,0,1-1.37524,0c-1.55507-.09124-3.11278-.36629-4.57793-.45885-1.00762-.09124-2.01524-.09124-3.11278-.18249-1.55772,0-3.11543,0-4.6705-.09124-.275,0-.64266.18249-.91506.09124a3.336,3.336,0,0,0-2.6579.36629,2.20322,2.20322,0,0,1-2.74517-.1838.68959.68959,0,0,0-.45753-.09124c-.73258-.36629-1.37523.09124-2.10781.275-.45753.09124-.64.27505-.45753.82382a15.33375,15.33375,0,0,1,.45753,2.83906c0,1.64895-.18248,3.20535-.275,4.853-.08991,1.46515-.18248,2.9303-.18248,4.39545v4.76174A6.99053,6.99053,0,0,1,199.8,58.23911Z"/><path d="M254.00792,92.3951c-1.10019.18381-2.10517.45885-3.11279.64133-1.1901.09125-2.38285.09125-3.573.18249-.18248,0-.275-.09124-.45752,0a7.095,7.095,0,0,1-4.76042-.18249,5.43141,5.43141,0,0,1-2.74782-1.28266,1.10807,1.10807,0,0,1-.27505-1.37259c.45753-1.19011.82514-2.38153,1.19011-3.57164a10.0791,10.0791,0,0,1,.64265-1.46515c1.46515-2.10648,2.28765-4.48669,3.47775-6.777,1.37523-2.56269,2.9303-4.94422,4.39545-7.417.91771-1.55639,1.83277-3.204,2.84039-4.76174.64-1.09887,1.28-2.19773,2.0126-3.29659a36.88974,36.88974,0,0,0,1.92532-3.204c.91506-1.74019,1.64763-3.57163,2.65525-5.31183.73258-1.55639,1.7402-2.9303,2.5627-4.39545,1.10018-2.01392,2.1078-4.02916,3.11278-5.95184.55009-1.00762,1.19275-1.92268,1.7402-2.9303.9177-1.7402,1.83276-3.4804,2.74781-5.128a50.29232,50.29232,0,0,1,2.83774-4.30421c.46018-.73258.9177-1.46515,1.46515-2.19773a9.2758,9.2758,0,0,1,2.9303-3.02154,5.554,5.554,0,0,1,1.19275-.27505c1.37259,0,2.74518.09125,4.12041,0a33.81816,33.81816,0,0,0,4.30289-.275c1.64763-.09124,3.29791-.36629,4.94554-.54877h.91506c.45753,0,.91506.27372,1.46515-.09124.275-.18381,1.10018.27372,1.46515.54877,1.1901,1.28134,2.47277,2.65525,3.57031,4.02916,1.37523,1.7402,2.56534,3.66288,3.848,5.49431a58.71413,58.71413,0,0,1,4.39545,7.23452c1.83011,3.29658,3.75279,6.68441,5.67547,9.981,1.10019,2.01525,2.19773,4.02917,3.39048,5.95185,1.1901,2.19772,2.38021,4.39545,3.75279,6.50193.82514,1.37391,1.92268,2.564,2.84038,3.93793q.96,1.51143,1.92268,3.02154c.365.64133.8225,1.1901,1.19011,1.83144.55009.82381.91506,1.64763,1.37259,2.47277,1.37523,2.19772,2.74781,4.48669,4.1204,6.59318,1.1901,1.83143,2.38285,3.47907,3.573,5.21926-.82514.73258.365,1.19011.18248,2.01393-.36761-.54877-.73257-.91506-1.10018-1.37259-.54745.64-1.09755,1.28134-1.64764,2.01392.45753.09124,1.00762.1838,1.46515.275v.1838c-.18248,0-.45753.09124-.64.09124-.27505,0-.73257-.1838-.73257.45753,0,.09124-.45753.27505-.73258.27505-2.29029.09124-4.57793.18248-6.96079.27372a15.95805,15.95805,0,0,1-2.10516,0c-1.28267.09257-2.56533.18381-3.84536.36761-.275,0-.64265.27373-.9177.365h-.82249a14.70843,14.70843,0,0,1-2.01525.09256,8.31,8.31,0,0,1-1.55771-.09256c-.2724,0-.54745-.365-.8225-.64a.98787.98787,0,0,1,1.37259-.275,2.28428,2.28428,0,0,0,.82514.09124c-.64266-.45753-1.28267-.82382-1.7402-1.1901a4.61053,4.61053,0,0,0-.275-1.19011,37.46789,37.46789,0,0,0-2.10517-3.66287c-1.10018-1.5564-2.29029-3.11411-3.48039-4.57926,0-.09124-.09256-.09124-.09256-.18248-.73258-2.01525-2.38021-1.46515-3.93793-1.37391-1.37258.09124-2.65525.1838-4.02784.36628-2.47277.18249-5.03546.36629-7.50823.64134-3.11543.27372-6.13565.64133-9.24844.91506a16.74773,16.74773,0,0,1-3.02286-.09125,2.54971,2.54971,0,0,0-.82514.09125c-2.28764.64133-4.57793.09124-6.86822.09124H264.904a15.55489,15.55489,0,0,1-2.10516-.09124.86736.86736,0,0,0-1.00762.45885q-.82515,1.37259-1.64764,2.74649c-.55009,1.00763-1.1901,1.83144-1.74019,2.83906-.18249.36629-.27505.82382-.45753,1.19011,0,.18248-.09257.275-.09257.36629-.64.73257-1.1901,1.55639-1.74019,2.289-.365.27505-.8225.5501-1.19011.82514v-.275C254.64793,92.57891,254.283,92.3951,254.00792,92.3951ZM284.226,43.4038a6.95241,6.95241,0,0,0-.45752.55009c-.27505.55009-.5501,1.00762-.82514,1.46515-.08992.27505-.27241.45753-.365.73258-.45753.82381-.82514,1.74019-1.37259,2.564-.46017.82382-1.10018,1.55639-1.55771,2.38153-.91506,1.73888-1.7402,3.47907-2.65525,5.21927-1.28267,2.47145-2.65526,4.853-3.93793,7.23451-.36761.64-.82514,1.28135-1.1901,2.01392.275,0,.45753.18381.64.18381,1.28267,0,2.56534,0,3.75544-.09257,1.46515-.09124,2.83774-.18248,4.30289-.18248,1.74019,0,3.38783.18248,5.128.18248,2.3802,0,4.67049-.18248,7.0507-.36629a17.84556,17.84556,0,0,0,2.19773-.18248C291.91935,57.59777,287.98142,50.63831,284.226,43.4038Z"/><path d="M380.09814,90.19737c-1.64764.45886-3.20535.91638-4.853,1.37391-1.46515.275-2.9303.5501-4.39545.73258-1.00763.18248-2.01525.275-3.02287.36629-.64.1838-1.28267.36628-2.01524.54877a18.20286,18.20286,0,0,1-6.6831-.09124,20.75058,20.75058,0,0,1-2.56534-.73258c-1.64763-.36629-3.38783-.54877-5.128-.91506a22.25524,22.25524,0,0,0-3.38783-.73257c-2.01525.09124-3.66288-.91638-5.493-1.19143a8.76033,8.76033,0,0,1-2.6579-.73258,22.6633,22.6633,0,0,1-3.29527-1.73887c-2.01524-1.46515-3.93792-3.11411-5.95317-4.76174a13.57741,13.57741,0,0,1-1.55507-1.64895.67791.67791,0,0,1-.09256-.45753c0-.18381.09256-.45753.09256-.73258.08992-.73257-.36761-1.09886-1.00762-1.46515a7.14469,7.14469,0,0,1,3.4804-2.65525,17.28745,17.28745,0,0,0,3.29526-1.46515,19.50187,19.50187,0,0,1,2.47278-.91638c.55009-.275,1.28266-.36629,1.64763-1.00763a2.01,2.01,0,0,1,2.01524.18381c.73258.64133,1.46515,1.28134,2.29029,1.92268a22.0323,22.0323,0,0,0,3.47775,2.10648c1.37523.5501,2.56534,1.37391,3.93792,2.01525a7.13618,7.13618,0,0,0,2.47277.73257c2.10517.27373,4.213.73258,6.22822,1.09754.54745.09257,1.09754.09257,1.64763.18381.64.09124,1.28267.36628,1.92268.45753a3.44449,3.44449,0,0,0,1.00762.09124,1.25284,1.25284,0,0,0,.8225,0,20.10592,20.10592,0,0,0,3.29791-.27373c1.74019-.36628,3.48039-.91638,5.22059-1.46515a12.08271,12.08271,0,0,0,3.29526-1.55639,5.52061,5.52061,0,0,0,1.83276-2.47277,9.58722,9.58722,0,0,1,.91506-1.09886,1.65239,1.65239,0,0,0,.365-.82382,4.34172,4.34172,0,0,0-2.19773-3.93792,8.43655,8.43655,0,0,0-1.55507-.82514,10.73309,10.73309,0,0,0-1.55771-.54877c-1.00762-.27505-2.01525-.64134-3.02287-.91638-1.1901-.27373-2.28764-.54877-3.38783-.91506h-.275c-.8225-.64134-1.92268-.45753-2.83774-.82382-.45753-.1838-1.09754.09124-1.64763.09124a2.50453,2.50453,0,0,1-.82514,0,.98887.98887,0,0,0-1.00762,0c-.08992.09124-.365,0-.365,0-.18248-.55009-.73257-.275-1.00762-.36628-.18248-.09125-.36761-.27505-.64-.45753a6.172,6.172,0,0,1-3.20535.18248,45.75818,45.75818,0,0,1-4.94554-.73258,6.26234,6.26234,0,0,1-3.11279-1.28134c-.73257-.82514-1.65028-.73258-2.47277-1.09886-.45753-.18381-.82514-.45886-1.28267-.64134-1.1901-.45753-2.38021-.91506-3.66287-1.28267a20.09781,20.09781,0,0,1-2.19773-.73257c-.91506-.45753-1.7402-1.09754-2.65526-1.64763a2.96992,2.96992,0,0,0-.82513-.27505,6.97652,6.97652,0,0,1-2.47278-1.83144c-.915-1.09886-2.10516-1.92268-2.47012-3.38783a27.46049,27.46049,0,0,1-.64266-4.1204,12.219,12.219,0,0,1,0-2.564,21.58927,21.58927,0,0,1,.45753-2.564,17.71348,17.71348,0,0,1,2.9303-5.49432,22.95471,22.95471,0,0,1,3.48039-3.20534A39.12532,39.12532,0,0,1,340.35659,30.95a21.43712,21.43712,0,0,1,6.59318-2.56269,29.9206,29.9206,0,0,0,4.76041-1.7402,8.4827,8.4827,0,0,1,1.46515-.36629,34.76525,34.76525,0,0,1,7.6008-1.37391,53.26557,53.26557,0,0,1,9.341.5501,28.89644,28.89644,0,0,1,4.853,1.1901c1.37259.45753,2.74782.82382,4.02784,1.28135,1.28267.55009,2.65526,1.09886,3.93793,1.74019,1.1901.64134,2.3802,1.46515,3.57295,2.19773a19.68212,19.68212,0,0,1,2.19773,1.64895c1.46515,1.37259,2.83774,2.83774,3.2027,4.94423.09256.45752.275.54877.73258.36628a6.98539,6.98539,0,0,1,1.37523-.09124c-.36761.45753,0,1.28135-.82514,1.46515a.19732.19732,0,0,0-.18248.18249c.09256.82381-.73258.91638-1.19011,1.3739a3.07428,3.07428,0,0,1-1.55771.73258c-.365,0-.64.36629-1.00762.55009-.91506.365-1.92268.73258-2.83774,1.0063-.91506.27505-1.83276.64134-2.74782.91638-1.09754.27505-2.10516.45753-3.20535.64-.08992.09257-.18248,0-.275,0a9.60951,9.60951,0,0,1-3.20271-1.1901,17.99916,17.99916,0,0,0-5.128-2.564c-1.00762-.36629-1.92533-.91506-2.9303-1.28135-1.10019-.36629-2.38286-.55009-3.573-.82514a23.20585,23.20585,0,0,0-2.65526-.45753,8.95092,8.95092,0,0,0-4.1204.09257,17.68467,17.68467,0,0,1-3.02287.54877c-.91505.1838-1.74019.275-2.56269.45753a11.26641,11.26641,0,0,1-1.46515.36628,20.75575,20.75575,0,0,1-.64265,2.564,1.24081,1.24081,0,0,0,.275,1.46515,8.93616,8.93616,0,0,0,2.84038,2.01524,20.32863,20.32863,0,0,0,6.95815,1.64763c1.10018.09124,2.1078,0,3.20534.09124,1.19011.09257,2.38021.27505,3.66288.45886,1.00762.09124,2.01524.18248,3.11278.36628a28.07247,28.07247,0,0,1,7.23584,1.37259,26.80162,26.80162,0,0,0,2.9303.73258,5.89816,5.89816,0,0,1,1.46515.55009,17.229,17.229,0,0,1,2.74517,1.09886c1.28267.64134,2.47278,1.37391,3.66288,2.10649a11.04775,11.04775,0,0,1,3.93792,4.94422,19.7521,19.7521,0,0,0,1.00762,1.924,10.30789,10.30789,0,0,1,.64266,1.46515,3.52326,3.52326,0,0,0,.54745,1.0063c1.10018.91638,1.1901,2.19773,1.28267,3.48039.09256,1.5564,0,3.11279,0,4.66918a10.99175,10.99175,0,0,1-.365,1.83276c-.27505,1.0063-.46017,2.01392-.73257,2.9303-.5501,1.28135-1.10019,2.56269-1.7402,3.84536-.64266,1.00762-1.46515,2.01524-2.10781,3.02154a11.45859,11.45859,0,0,1-2.83774,3.38915,10.02382,10.02382,0,0,1-4.1204,2.19773c-1.46515.27372-3.02287.64-4.57794.91506-.09256,0-.18512-.09124-.275-.09124C379.82309,90.47242,380.00557,90.38118,380.09814,90.19737Z"/><path d="M512.78154,13.00325c-.18249.365-.365,2.01392-.5501,2.65525-.08991.54877-1.92267,1.64763-1.92267,1.64763l-2.28765.91638-1.55771,1.28135-4.02785-.91506c-4.03048-.1838-7.9684-.36629-11.90633-.36629-3.29526,0-10.8035,1.37391-12.72882,3.57164-.08992.18248-.27241.365-.365.54877a67.96545,67.96545,0,0,1-2.83774,6.50194,18.6574,18.6574,0,0,0-.82514,2.10516c-.09256.64133-.91505,5.58688-1.28266,6.04441a9.382,9.382,0,0,1-3.84536,3.1141,52.321,52.321,0,0,1-6.50062.91506c-1.37523.18248-13.37148.73257-14.56158,1.00762-.64,0-1.28267.18248-1.92268.18248-1.09754,0-2.19773-.09124-3.29527-.09124-.9177,0-1.28267.73258-.82514,1.55639a2.64993,2.64993,0,0,1,.18249.82514c-.18249,1.55639-.365,3.11279-.5501,4.57794-.08992,1.09886-.08992,2.19772-.18248,3.20534,0,2.564-.08992,5.128-.18248,7.6008,0,1.5564-.09257,3.11279-.18249,4.66918-.09256,2.47277-.275,4.8543-.36761,7.32575-.08991,2.01525.18249,4.12173-.08991,6.13565-.09257,1.55639.18248,3.29659-.73258,4.76174-.18513.45753-.09256.64133.18248.64133q-.27372,1.6483-.55009,3.29659c0,.27505,0,.54877-.18248.64a2.49859,2.49859,0,0,0-.55009,1.55772c-.09257.73257.275.82382.73257,1.09886a3.35072,3.35072,0,0,1,1.00762.45753c-.45753.18381-.82514.27505-1.00762.54877-.09256.18381.18248.64133.36761.91638a8.0008,8.0008,0,0,1-1.28267,1.09886,3.96879,3.96879,0,0,1-1.10018.45753,20.25015,20.25015,0,0,1-7.78328.5501c-1.55507-.09257-3.20535,0-4.853-.18381a6.14975,6.14975,0,0,1-2.56269-.91506c-.55009-.36628,0-.91638.27241-1.19142.36761-.27373.275-.54877.18512-.91506-.09256-1.28267-.275-2.564-.275-3.93792-.18249-2.19773-.18249-4.39546-.275-6.59318v-.275c.18248-2.74649.45753-5.493.64-8.24081.18513-2.47277.27505-4.94554.45753-7.32575a3.51076,3.51076,0,0,1,.36761-1.19011c0-.09256.09256-.36628,0-.45753-.64-.91638-.45753-2.01524-.55009-3.02286,0-1.00762,0-2.10516-.08992-3.11278,0-.18381.08992-.36629.08992-.64134.09256-1.1901.09256-2.289.09256-3.47907V46.5179a21.221,21.221,0,0,0-.36761-2.38153,10.08019,10.08019,0,0,1,0-1.64763c.09257-.64133,0-.82382-.73257-.82382-2.19773-.09124-4.48537-.1838-6.6831-.275a13.97231,13.97231,0,0,0-2.74782-.09124c-1.83276.45752-3.48039-.36629-5.22059.09124-1.09754.275-2.10516-.18381-3.11278-.18381a7.82291,7.82291,0,0,0-2.9303.36761,3.23136,3.23136,0,0,1-3.02287-.1838,7.72391,7.72391,0,0,0-2.47013-1.19011,3.34736,3.34736,0,0,0-1.28266.18249h-.73258a5.41367,5.41367,0,0,1,.18248-.64134c.275-.54877.64-1.0063.91506-1.46515a2.2954,2.2954,0,0,0,.18513-1.09754c0-.82514-.09257-1.649-.09257-2.47277,0-1.92268.09257-3.84668.09257-5.76936,0-.27505-.18513-.54877-.09257-.82382a1.68543,1.68543,0,0,1,.45753-1.09886c.09257-.09124.45753.09124.73258.09124.18248,0,.55009.09124.64,0,.82514-1.00762,2.01524-.73258,3.20535-.64133,1.10018.09124,2.19772.36628,3.29791.36628a17.58949,17.58949,0,0,0,2.19772-.18248c1.46516-.09256,3.02023-.09256,4.57794-.1838,2.01524-.09125,4.03049-.36629,6.04308-.45753,2.84039-.09125,5.67812-.09125,8.51586-.18381,3.48039-.18248,6.96079-.45753,10.34862-.54877,1.1901-.09124,2.47277.09124,3.66288.09124,2.10516,0,4.213-.18248,6.31813-.18248,2.1078.09124,3.20534.36629,5.22059.45753,1.28266,0,2.56269.18248,3.93792.18248a24.56823,24.56823,0,0,0,2.56269-.09124h.18248c.18513-1.09886.46018-2.7465.64266-3.75412.91506-4.02916,3.93792-13.36884,5.31051-14.28522a35.13053,35.13053,0,0,1,4.853-1.83143c-.08992-.09125,3.20535-.27505,3.11278-.27505a2.85851,2.85851,0,0,0,.5501-.27505c.55009-.18248,2.9303-.73257,3.57295-.915h.18249l.275-.275a2.9591,2.9591,0,0,0,1.28-.36629C478.90059,2.01462,497.6725-.7332,497.57994.18186c3.48039.1838,6.50326.09256,6.7783.1838.275,0,2.74518.27505,2.74518.27505l1.92532.73257a7.78359,7.78359,0,0,1,1.37259.45753c.365.18381.73257,1.649,2.29029,6.777l-.18513,1.37259A14.216,14.216,0,0,1,512.78154,13.00325Zm-6.4107-10.25606h0Z"/><path d="M503.98534,27.471a4.83354,4.83354,0,0,1,.36761,1.649c0,1.09754,0,2.19773.08992,3.29527v.55009a34.58241,34.58241,0,0,0,.275,4.30421c.09256,2.7465,0,5.49432.09256,8.14957,0,2.10649.18249,4.12041.365,6.13565,0,.54877-.18248,1.00762-.18248,1.55639,0,2.83906,0,5.76936-.09257,8.6071-.08992,3.02286-.2724,5.95317-.18248,8.88347,0,2.10516.27505,4.21164.36761,6.31813a42.08073,42.08073,0,0,1,0,5.8606,44.17675,44.17675,0,0,0,.18248,4.94554c0,.09125-.09256.27373-.18248.64-.18513-.36629-.36761-.64-.45753-.82382,0,.45753-.275,1.00762.54745,1.1901.55009.09124.64266,1.09887.18513,1.5564-.27505.1838-.5501.55009-.82514.73257-.36761.18381-.82514.36761-1.19011.55009-.36761.18249-.64265.36629-1.00762.5501a8.12011,8.12011,0,0,1-1.28267.27372c-2.74782.18381-5.40307.36629-8.14824.55009a22.58682,22.58682,0,0,1-2.47278.18249,5.89319,5.89319,0,0,1-1.74019-.36629,8.65434,8.65434,0,0,0-.91506-.45753c-.55009-.18248-1.28267-.27505-.73258-1.19011a.54425.54425,0,0,0-.09256-.36628c-1.1901-1.28267-1.28267-2.9303-1.1901-4.57926,0-2.01392.08992-3.93792.08992-5.8606,0-1.83144-.08992-3.57031-.08992-5.31051.08992-2.47277.275-4.853.365-7.32575a8.73806,8.73806,0,0,0,0-1.55772c-.08992-1.83011-.18248-3.66288-.365-5.493,0-1.10019-.09257-2.19773-.09257-3.29791,0-1.19011.27505-2.38021.36761-3.57031.08992-2.10649.18249-4.12041.27505-6.22689,0-1.7402-.18513-3.4804-.27505-5.128v-.55009c.365-1.73888,0-3.57164.08992-5.40176,0-2.10648.36761-4.213.55009-6.31945.18249-1.28134.45753-2.564.64-3.84536a1.27351,1.27351,0,0,1,1.00762-1.00762c.64265-.09124,1.28267-.36629,1.92268-.45753a12.28879,12.28879,0,0,1,1.83276,0c1.64763-.09124,3.38783-.09124,5.03546-.1838,1.1901,0,2.29029-.18249,3.48039-.09124a4.77212,4.77212,0,0,1,3.20535,1.00762C503.25277,26.28084,503.62038,26.82961,503.98534,27.471Z"/><path d="M518.81933,92.57891c-.09256.18248-.09256.36628-.18512.54877-.45753-.09125-.8225-.18249-1.37259-.27373a6.44292,6.44292,0,0,1-.18248,1.19011c-.18513,0-.36761-.09257-.5501-.09257a3.19051,3.19051,0,0,0,.365-.82381c-.2724-.09125-.45753-.18249-.73258-.27373-.08992.18248-.18248.365-.365.73258a2.25329,2.25329,0,0,0-.09257-.82514c-.915.275-1.00762-.18248-1.00762-.91506-.18248-3.75544-.45753-7.41832-.64-11.17243-.09256-2.93031-.09256-5.95185-.09256-8.97339,0-2.10648-.18249-4.213,0-6.22689a64.60644,64.60644,0,0,0-.365-8.42462c-.18248-2.83906-.09256-5.76936-.18248-8.69966-.09256-2.01524-.275-4.02916-.275-5.95184,0-2.10649.08992-4.12173.18249-6.22689q.13884-2.884.275-5.76936c.09257-.91638.275-1.92268.45753-2.83906.275-1.00762,1.10019-1.28135,1.83276-.45753a1.14267,1.14267,0,0,0,1.19011.36629c1.09754-.275,2.19772-.36629,3.29526-.64134,1.10019-.18248,2.29029-.45753,3.38783-.73257.9177-.27505,1.83276-.54877,2.74782-.73258a2.90852,2.90852,0,0,1,2.65526,1.00762c.275.18249.45752.36629.73257.5501l.09256-.09257c-.18248-.275-.36761-.64-.55009-.91506a.09066.09066,0,0,0,.09257-.09256c.365.27505.73257.64134,1.09754.91638,1.00762.82382,2.01524,1.55639,2.9303,2.38153a15.26688,15.26688,0,0,1,2.47277,2.38021c1.1901,1.28267,2.38021,2.74782,3.48039,4.12041a28.07174,28.07174,0,0,1,1.92268,2.65525c.5501.64133,1.19011,1.28267,1.83012,1.924a41.56421,41.56421,0,0,1,3.93792,4.12041c.9177.91638,1.46515,2.10648,2.38285,2.9303,1.005,1.09886,2.28765,1.83144,3.38783,2.83906,1.7402,1.37259,3.47775,2.83774,5.128,4.30289,1.46515,1.28266,2.9303,2.65657,4.30289,4.03048,1.00762.91506,1.92268,2.01392,2.9303,3.02155a21.5238,21.5238,0,0,0,5.31051,3.75411,2.75157,2.75157,0,0,0,.9177.36629c-.18512-1.09886-.275-2.01392-.46017-3.02154V61.5357q-.13488-2.33458-.2724-4.6705c0-1.09886.08992-2.19773,0-3.20535a29.51183,29.51183,0,0,1,.08992-4.94422,51.59719,51.59719,0,0,0-.08992-5.31183c.08992-1.55639.2724-3.02154.45753-4.4867a9.97377,9.97377,0,0,1,.18248-1.64763,17.59139,17.59139,0,0,0,.18248-2.19772c0-.64134-.18248-1.28267-.18248-1.924V28.84486a9.167,9.167,0,0,1-.275-1.55772c-.09256-.54877.45753-.91506.73258-1.28134.82514-1.19011,2.01524-1.09887,3.11278-1.28135h.275c1.00762.73258,2.29029.64,3.38783.91506h.45753a5.03256,5.03256,0,0,1,2.84038.09124,6.10055,6.10055,0,0,0,1.83012,0,13.93093,13.93093,0,0,1,2.74781-.18248c.64,0,1.28267.36628,2.01525.36628a2.307,2.307,0,0,1,1.55507.54878c.09256.1838.275.36628.36761.55009.09256,1.37391.365,2.74649.365,4.21164,0,2.38154-.08992,4.76174-.08992,7.23452,0,1.1901.08992,2.38153.08992,3.66287,0,1.83144,0,3.75412-.08992,5.6768q-.13884,5.77-.275,11.53872c-.09257,1.7402,0,3.48039,0,5.21927-.09257.91638-.18249,1.924-.275,2.9303,0,1.00762-.09256,2.01524,0,3.02154a72.53989,72.53989,0,0,1-.18248,7.69337c-.09257,3.11278-.09257,6.31813-.18249,9.52347a9.44459,9.44459,0,0,1-.36761,2.7465c-.09256-.1838-.275-.45753-.45752-.73257l-.73258.36628a6.0831,6.0831,0,0,1,1.09754.5501,4.60222,4.60222,0,0,0-.64.73257,3.09683,3.09683,0,0,0-.73258,1.55639c-.09256.45753-.73257.82382-1.1901,1.09887-.55009.275-1.28267.54877-1.92268.82381-.09256.09124-.275,0-.45753,0-.9177.09124-1.92268.18381-2.84038.27505a3.0762,3.0762,0,0,1-.91506,0,1.13309,1.13309,0,0,0-1.37259.36629c-.18512.18248-.45752.18248-.64265.275-.08992-.09256-.08992-.09256-.08992-.1838.08992-.09124.275-.09124.365-.18381a.69167.69167,0,0,0-.365-.18248c-.55009-.18248-1.00762-.36629-1.19011-1.09886-.09256-.27505-.55009-.45753-.9177-.73258a5.06255,5.06255,0,0,0-.365-.64133c-.18249-.18248-.275-.45753-.45753-.64-.275-.36761-.55009-.91638-.9177-1.10019a30.88511,30.88511,0,0,1-6.50062-5.95184c-.82514-.91506-1.83011-1.73888-2.74782-2.65526-.73257-.64133-1.46515-1.46515-2.19772-2.19772a1.888,1.888,0,0,0-.54745-.36629,4.29886,4.29886,0,0,1-.64266-.27505c-1.28266-1.28134-2.56269-2.564-3.84536-3.75412a15.96184,15.96184,0,0,0-1.37258-1.1901c-2.6579-2.38153-5.31316-4.8543-7.96841-7.23451-.8225-.82382-1.7402-1.64763-2.56269-2.47277-1.28267-1.28135-2.56534-2.65526-3.848-3.93793-.64-.54877-1.09754-1.28134-2.0126-1.46515-.275-.09124-.55009-.45753-.82513-.73257-1.19011-1.19011-2.47278-2.47145-3.66288-3.66288a6.63333,6.63333,0,0,1-.55009-.82381c-.18249.1838-.275.275-.275.275-.18248-.36629-.365-.73257-.64-1.1901a.09026.09026,0,0,1-.09256.09124c0,1.1901-.08992,2.47277,0,3.66288.09256,1.09886.46017,2.19772.64265,3.38783a22.71891,22.71891,0,0,1-.09256,2.47277c-.08992,2.47277-.275,15.93417-.275,17.94809.09257,2.19773-.08992,4.39545-.08992,6.59318a17.45771,17.45771,0,0,0-.09256,2.19773,2.71888,2.71888,0,0,0,.18248.82381c.09257.36629.18513.73258.275,1.19011h-.275V90.93a1.72806,1.72806,0,0,0-1.37259,1.83144,4.80272,4.80272,0,0,0-.73257-1.00762c-.09256.91638-.73258-.09125-1.00762.275-.18248-.36629-.45753-.73257-.64-1.09886-.09257.09124-.18513.09124-.275.1838.08992.18249.275.36629.275.54877v.5501a22.4317,22.4317,0,0,1-2.38286.54877,7.21375,7.21375,0,0,1-1.37258.275c-1.37259,0-2.74782-.09124-4.213,0-1.28,0-2.56269.09125-4.02784.09125A3.80293,3.80293,0,0,0,518.81933,92.57891Z"/><path d="M678.78786,71.5167a20.49563,20.49563,0,0,1-1.19011,1.83144c-.55009.5501-.55009.5501.275,1.09887a9.75087,9.75087,0,0,0-1.10019.91638c-.08992.18248-.275.36628-.275.54877.18512.73257-.54745.91638-.64,1.37391-.275.73257-1.37258.91638-1.1901,1.83143,0,.09125-.18248.275-.36761.36629a1.63858,1.63858,0,0,0-.73258.45753,6.61892,6.61892,0,0,0,.73258.275,2.28865,2.28865,0,0,1-.18248.64133c-.365-.36629-.73258-.1838-.91506.27505a5.69175,5.69175,0,0,1-.45753,1.09754,1.06892,1.06892,0,0,0-1.55771.275c-.08992.18381-.08992.36629-.275.45753a3.55784,3.55784,0,0,0-1.7402,1.10019,4.10611,4.10611,0,0,1-1.1901.91506,7.25538,7.25538,0,0,1-1.83012.64133c-.73257.27372-1.46515.36629-1.92268,1.1901-.09256.27505-.45753.36629-.64265.45753a6.496,6.496,0,0,1-1.28.09124c-.64265.09257-.9177.45886-.55009,1.10019h-1.55771a10.17148,10.17148,0,0,1-1.46515.27372c-.27505.18381-.365.5501-.91506.36629-.36761-.09124-.82514.18381-1.28267.275a27.54877,27.54877,0,0,1-2.9303.64133,5.52966,5.52966,0,0,0-1.09754.45753c-.45753.09124-.9177.45753-1.37523.36629-1.37259-.09124-2.56269.55009-3.84536.45753a18.4341,18.4341,0,0,0-3.11279.55009c-1.83276.36629-3.66287.91506-5.40307,1.1901a41.46516,41.46516,0,0,1-4.76306,0c-1.28,0-2.47013-.09124-3.7528-.09124-1.74019.09124-3.38783.18249-5.128.27373-1.92268.09256-3.75544.09256-5.67812.09256-1.09754,0-2.29029-.27505-3.38783-.27505a9.055,9.055,0,0,0-2.74782.36629,10.8587,10.8587,0,0,1-3.84536,0,6.01126,6.01126,0,0,0-1.28267,0,6.97879,6.97879,0,0,1-2.38021-.1838,9.97,9.97,0,0,0-3.66287-.27373,8.85059,8.85059,0,0,0-1.64764.27373,1.40714,1.40714,0,0,1-1.74019-.91506,10.38041,10.38041,0,0,1-.91506-2.10649A2.907,2.907,0,0,1,597.747,88.916c.09256-1.09886.09256-2.29029.09256-3.38783,0-1.7402-.09256-3.4804-.09256-5.22059.09256-1.37259.18248-2.65526.275-3.93792,0-1.64764,0-3.38783.08992-5.03547.09257-4.39545.275-8.88347.275-13.27892,0-2.56269-.275-5.128-.365-7.59947V40.6573c0-2.289,0-4.57926.08992-6.95946a35.69856,35.69856,0,0,1,.36761-4.39546,13.02627,13.02627,0,0,1,1.09754-3.66287c.36761-.91506,2.10781-1.92268,3.20535-1.09886.9177.73257,2.01524.54877,3.11543.45752,1.64763-.09124,3.29526-.27372,4.853-.45752a54.04414,54.04414,0,0,1,9.43091.09124c3.29791.1838,6.59318.45753,9.89109.64133,2.10516.09124,4.12041.18381,6.22557.27505,2.74782.18248,5.49564.18248,8.24081.54877,3.29791.36629,6.50326,1.00762,9.79853,1.55771a34.89458,34.89458,0,0,1,4.213,1.0063c3.29527,1.19143,6.77566,2.19773,9.706,4.213a29.55547,29.55547,0,0,1,6.86822,6.22689,46.457,46.457,0,0,1,3.84536,6.50061,32.71607,32.71607,0,0,1,1.55771,3.75544,14.46074,14.46074,0,0,1,.365,3.47908v3.57163c0,1.28267.09256,2.65525.09256,3.93792,0,.82382.09257,1.64764.09257,2.38021v.27505a11.73623,11.73623,0,0,0-.45753,1.74019,30.65211,30.65211,0,0,1-.91771,3.11279c-.08992.36629-.365.64133-.365.91638a3.90252,3.90252,0,0,0,.18248,1.09886C679.24538,70.41784,679.0629,70.96793,678.78786,71.5167ZM660.19843,58.23911a25.50892,25.50892,0,0,0-2.28765-8.6071,5.64125,5.64125,0,0,0-1.10018-1.7402,24.85169,24.85169,0,0,0-3.66288-3.29659,34.89479,34.89479,0,0,0-6.41069-3.20534,29.76461,29.76461,0,0,0-5.67548-1.19011c-2.01524-.275-4.12305-.55009-6.22821-.73257a29.81433,29.81433,0,0,0-4.94555-.27505c-3.11278.09124-6.31813.45753-9.43091.73258-.55009.09124-.73258.275-.73258.91638.09257,1.37258.09257,2.83773.09257,4.30288v1.55772c.08992,2.83774.08992,5.58555.18248,8.33205.08992,2.74782.275,5.40307.365,8.14957.09256,2.01524.18512,4.03049.18512,6.04441.08992,2.74649,0,5.40307-.09256,8.14957,0,.45753.09256.64133.64.64133a39.91288,39.91288,0,0,1,4.6705.36629c2.74782.36629,5.40307-.18248,8.15089-.275,1.28267-.09124,2.56269-.36629,3.84536-.54877a37.86472,37.86472,0,0,0,8.42594-1.46515c1.55507-.55009,3.11278-1.00762,4.66785-1.64895,1.83276-.64,3.75544-1.46515,5.5882-2.19773a1.11345,1.11345,0,0,0,.45753-.45753q.82118-1.924,1.64763-3.84536c.91506-2.47277,1.92268-4.94554,1.83012-7.69336A15.21716,15.21716,0,0,1,660.19843,58.23911Z"/><path d="M750.57494,39.00835c-.18248-.45753-.36761-1.19011-.73257-2.19773-.275.64133.275,1.19143-.09257,1.7402a.93338.93338,0,0,1-.365.09256c-2.65526.18248-5.31051.54877-7.87585.54877a77.70194,77.70194,0,0,0-7.96576.64133c-1.10019.09125-2.19773.18249-3.29791.18249a32.76979,32.76979,0,0,1-5.95052.275c-2.10781-.09124-4.12305.45753-6.22822.36629-1.00762,0-2.10516-.09124-3.11278,0-1.1901,0-2.38021.18381-3.573.27505-1.83011.18248-3.57031.45753-5.40042.64133-.73258.09124-.91771.45753-.82514,1.0063.09256,1.09886.365,2.10649.365,3.20535.09257,1.92268.18513,3.84668.18513,5.76936,0,1.09886.18248,1.28135,1.1901,1.28135,2.19773,0,4.30289-.09125,6.4107-.09125,1.1901,0,2.38021.18249,3.57031.18249,1.64763,0,3.29527-.09124,4.94554-.18249,2.10517,0,4.30289-.09124,6.40806-.18248a51.25387,51.25387,0,0,1,5.31315-.09256c2.65525.09256,5.21795.36629,7.8732.45753,1.65028.09256,3.29791-.18249,5.03811-.09124a24.57216,24.57216,0,0,1,3.66287.275,1.36218,1.36218,0,0,1,1.19011,1.19011c.09256,1.3739.27505,2.65657.27505,3.93792a39.67837,39.67837,0,0,1-.36761,4.6705c0,.73257-.08992,1.55639-.08992,2.3802a4.84259,4.84259,0,0,1-.5501-.73257c-.36761-.54877-.64-.54877-1.10018.09124a4.11837,4.11837,0,0,1-.64.64133c-.275.09125-.73258.09125-1.09754.18381-.09257,0-.275.18248-.36761.18248-3.02287.09257-6.04309.27505-9.066.18381-1.92268-.09124-3.66288.36629-5.493.36629-2.29029,0-4.488,0-6.7783.09124-1.83012.09124-3.57031.36628-5.40043.36628a101.91254,101.91254,0,0,1-11.81377-.36628h-3.02286c-.18248,1.64895-.45753,3.29659-.64,5.03678-.09257.82382-.09257,1.64764-.18249,2.47277v2.5627c-.09256.45885.08992.64133.54745.64133a14.01659,14.01659,0,0,1,5.128.55009,1.595,1.595,0,0,0,.9177-.09124,10.32605,10.32605,0,0,1,3.7528.09124,5.38133,5.38133,0,0,0,3.38783-.1838c.18512,0,.275-.09124.46017-.09124,1.46515-.09125,3.02022-.275,4.57793-.275,1.09755,0,2.19773.09124,3.29527.1838,1.7402,0,3.48039-.09256,5.22059-.09256,3.93792,0,7.87585.09256,11.72121-.09124a37.12186,37.12186,0,0,1,6.41069.64133c1.09754.18249,2.19773.27505,3.29527.5501a2.12149,2.12149,0,0,1,1.28267.91505,3.99394,3.99394,0,0,1,1.00762,3.4804c-.36761,2.01392-.45753,4.1204-.73258,6.22556,0,.27505.18248.5501.18248.73258a5.817,5.817,0,0,1-1.09754.91638,3.63072,3.63072,0,0,1-1.19275.36629c-.2724.09124-.64.18248-.73257.36629-.2724.54877-.73258.54877-1.28.54877-2.56534-.18249-5.128-.27373-7.69337-.365-1.74019,0-3.48039.27372-5.21794.365h-4.76306c-1.00763,0-1.92268.09256-2.93031.09256-1.92267.18248-3.84535.27505-5.768.36629-1.83276.18248-3.75544.27372-5.58556.36629-1.65028.09124-3.39047.275-5.03811.36628-1.28267,0-2.56269-.1838-3.84536-.1838-.55009,0-1.1901.09256-1.74019.09256-1.00763-.09256-2.10517-.1838-3.11279-.1838a5.68656,5.68656,0,0,0-1.74019-.09124c-1.37259,0-2.65526,0-4.03049.09124-2.38021.1838-4.76042.45753-7.14063.64133h-.64265a10.90673,10.90673,0,0,0-1.7402,0c-1.64763.09124-3.38783-1.09886-3.2027-2.74782.08992-1.83144-.82514-3.38783-.82514-5.21927,0-1.55639.09256-3.02154.09256-4.57925-.09256-2.19773-.275-4.39545-.36761-6.59318,0-1.83012.09257-3.66288.09257-5.493,0-.64134-.18513-1.37391-.18513-2.01525,0-2.10648.09256-4.213.18513-6.31813,0-1.09886-.09257-2.10648-.09257-3.1141,0-2.65526-.365-5.31051.27505-7.96709a19.12192,19.12192,0,0,0,.09256-4.57793,16.67311,16.67311,0,0,1,.08992-4.76174,12.03469,12.03469,0,0,0,0-2.564c0-.91506.09257-1.83144.18248-2.74782V33.0565c.09257-1.0063.275-1.92268.36761-2.9303,0-.27372-.09256-.54877-.09256-.82382a1.58649,1.58649,0,0,1-.08992-.91505c.18248-1.28267.91506-1.46515,2.10516-1.28267a10.59487,10.59487,0,0,0,2.9303-.27505,3.49831,3.49831,0,0,1,1.37259-.09124,2.923,2.923,0,0,0,1.7402-.275,4.2609,4.2609,0,0,1,1.83276-.54878c1.09754-.1838,2.10516.45753,3.20535.45753a7.37213,7.37213,0,0,0,3.11278-.45753,8.44878,8.44878,0,0,1,2.65526-.275c2.56533-.09124,5.03546.36629,7.60079-.27505a1.96673,1.96673,0,0,1,1.00763.18381,8.302,8.302,0,0,0,4.48537.18248c1.65027-.18248,3.20534-.27372,4.85562-.36629.91506-.09124,1.83012-.09124,2.74518-.18248.9177,0,1.92268.18248,2.84038.09124,1.64763-.1838,3.29526.27505,4.9429-.1838,1.37523-.45753,2.6579,0,3.93792,0a14.7262,14.7262,0,0,0,3.48039,0,17.09073,17.09073,0,0,1,3.02287-.365c1.46515-.09256,2.9303-.09256,4.39545-.09256,1.09754,0,2.19773.09256,3.20535.1838.18248,0,.54745.27373.54745.45753.09256.64133.55009.73258,1.00762.91638.45753.09124.73257.27373.73257.82382a.7074.7074,0,0,0,.18249.45753,6.12473,6.12473,0,0,1,.9177,2.83906c.08992.91505,0,1.83143,0,2.83773a6.01075,6.01075,0,0,1-.36761,2.56534,19.60889,19.60889,0,0,0-.365,2.289c-.18512.64133-.82514.91505-1.46515,1.09886a3.07378,3.07378,0,0,0-1.00762.64C751.85761,39.55844,751.30752,39.28339,750.57494,39.00835Z"/><path d="M825.84243,66.57248c-.45753.18249-1.09755.18249-.82514.91506-.45753.27505-.91506.73258-1.37259.64133-.55009,0-.82514.275-.82514.45753-.18248,1.09887-1.1901.82514-1.83012,1.37391a20.746,20.746,0,0,0,3.75544,4.30421A8.36706,8.36706,0,0,1,826.3,75.82091,38.79412,38.79412,0,0,1,828.95521,78.66a16.29948,16.29948,0,0,0,2.9303,2.65526c.9177.73257,1.7402,1.46515,2.56534,2.19773a30.36773,30.36773,0,0,1,2.56269,2.289c.45753.45885,1.10018.91638.9177,1.83144.54745.09256,1.005.18381,1.55507.27505a.951.951,0,0,1-.55009,1.1901c-.18249.09256-.45753.18381-.54745.36629a3.44462,3.44462,0,0,1-1.10019.91638,4.16425,4.16425,0,0,1-2.83773,1.00762c-1.19011.09124-2.29029.365-3.4804.54877-1.46515.09124-2.9303.09124-4.39545.18381-1.46515,0-2.9303,0-4.39545.09124a1.17316,1.17316,0,0,0-.55009.09124,3.96775,3.96775,0,0,1-2.28765.45753,1.726,1.726,0,0,0-.73257.1838,2.585,2.585,0,0,1-2.65526-.55009,32.50675,32.50675,0,0,1-3.11543-2.19773,29.35763,29.35763,0,0,1-2.56269-2.19772c-.91506-.91506-1.92268-1.73888-2.84038-2.65526-.82249-1.00762-1.64763-2.10648-2.38021-3.20534a4.91408,4.91408,0,0,1-.64-.82382c-1.10019-1.09886-2.10781-2.38021-3.29791-3.48039-1.00762-1.09754-2.19773-2.01393-3.29527-3.02155a18.16526,18.16526,0,0,1-1.1901-1.37391,1.52138,1.52138,0,0,0-1.7402-.54877c-.45753.18381-1.1901-.1838-1.83276-.275a7.90523,7.90523,0,0,1-1.46515-.09124c-.64-.09125-1.1901-.18249-1.83012-.27505a1.782,1.782,0,0,0-1.46515.45753,2.1872,2.1872,0,0,1-1.00762.55009,15.35322,15.35322,0,0,0-2.19772.45753,2.90766,2.90766,0,0,0-.91506.91638,2.30066,2.30066,0,0,0-.18513,1.09886,14.76957,14.76957,0,0,0-.08992,2.83774c0,.45885-.18248,1.00762-.18248,1.55772a.33346.33346,0,0,0-.09256.275,27.33678,27.33678,0,0,1,.18248,2.7465c0,.82381-.27505,1.55639-.27505,2.289-.18248,1.7402-.275,3.38783-.365,5.03679a3.325,3.325,0,0,1-3.29791,3.20535h-6.86823c-1.1901,0-2.38021.09124-3.57031.09124-.64,0-1.37259-.09124-2.01524-.09124a8.04256,8.04256,0,0,0-1.46516.18248h-.275a18.34242,18.34242,0,0,1-1.92268-.91506.929.929,0,0,1-.365-.64133c-.18248-2.01524-.275-4.02917-.45753-6.04309-.09256-.91638-.275-1.83276-.36761-2.83906-.08991-1.00762,0-2.10648-.08991-3.1141,0-1.28135-.09257-2.65526-.09257-3.93792v-1.5564c.09257-1.73887.275-3.47907.275-5.21926,0-1.5564.18248-3.20535-.55009-4.6705-.45753-1.09887,0-2.19773-.09257-3.29659-.08992-1.0063-.2724-1.92268-.2724-2.9303a21.56212,21.56212,0,0,1-.09256-3.47907c.09256-1.19011.365-2.29029.55009-3.4804v-.18248c-.55009-1.83144.27505-3.57164.18248-5.40307,0-1.37391.09257-2.65526.09257-4.02917.08991-.36629-.18513-.82381-.18513-1.28134-.08992-1.10019-.18248-2.29029-.275-3.38916,0-.45752.09257-.915.09257-1.37391a4.35542,4.35542,0,0,0,0-1.09754,6.89637,6.89637,0,0,1,.64-3.84668c.18512-.275.18512-.64133.36761-.91638a10.0435,10.0435,0,0,1,.91506-1.0063c.18248-.09124.275-.1838.45752-.1838-.08991-.18248-.275-.27505-.365-.36629a.55566.55566,0,0,0-.36761-.09124c.09256-.36629.09256-.73258.27505-.91506a2.18729,2.18729,0,0,1,1.00762-.55009,10.55565,10.55565,0,0,1,1.64763-.27505c2.29029-.275,4.488-.45753,6.77831-.73257,1.005-.09124,2.10516-.36629,3.2027-.45753a9.45269,9.45269,0,0,1,1.55771.09124q3.43543-.13686,6.86823-.27372c1.83011-.09257,3.57031-.27505,5.40307-.27505,1.00762,0,2.01524.09124,3.11278.09124,1.28267.09124,2.65526.09124,4.03049.09124,1.83012.09257,3.75279,0,5.58556.09257,1.74019.09124,3.38783.365,5.128.54877a46.22494,46.22494,0,0,1,5.03547.275c2.10516.36629,4.1204,1.09887,6.13564,1.64764a22.51758,22.51758,0,0,1,2.29029.73257,26.38452,26.38452,0,0,1,9.06331,5.21927,16.72883,16.72883,0,0,1,4.488,7.41832,41.48536,41.48536,0,0,1,1.37259,5.8606,17.22394,17.22394,0,0,1-.2724,4.30289c-.09256,1.00762-.275,2.01524-.46017,3.02286-.45753,1.37259-.8225,2.9303-1.37259,4.30289a12.65671,12.65671,0,0,1-1.83012,3.02286,13.84552,13.84552,0,0,1-2.29029,1.7402,11.012,11.012,0,0,0-1.37258,1.55639c-.09257,0-.09257.09124-.18513.09124a21.59074,21.59074,0,0,1-1.92268,1.19011c-.18248.09256-.55009-.09124-.82249-.18248C826.11747,66.29744,826.02491,66.48124,825.84243,66.57248Zm-13.0938-10.25605a3.85585,3.85585,0,0,0,1.46515-.09124c.45753-.18381.73258-.73258,1.00763-1.19143a2.46776,2.46776,0,0,0,.45752-.54877,5.5009,5.5009,0,0,0,1.46516-4.57926c-.09257-.54877-.09257-1.0063-.18513-1.55639-.54745-2.65525-1.64764-4.853-4.30289-6.04308-.73258-.27505-1.37259-.73258-2.01524-1.00762a22.98079,22.98079,0,0,0-2.28765-.82514,9.60544,9.60544,0,0,0-5.31315.36761,4.4635,4.4635,0,0,1-1.09754.09124c-1.00762-.09124-2.01525-.18381-3.02287-.18381a12.92465,12.92465,0,0,1-1.83011.09257c-1.64764-.18381-3.20535-.45885-4.76307-.64134h-.45752a12.50623,12.50623,0,0,0-3.11279.36629c-1.64763.18248-3.38783.09124-5.128.18248a6.80142,6.80142,0,0,1-1.37259,0c-1.10019-.09124-1.37523.18381-1.19275,1.28267.275,1.00762.55009,2.01392.73257,3.02154a23.09595,23.09595,0,0,1,.18513,3.57164c0,.54877-.275,1.00762-.275,1.55639,0,1.55639.08991,3.11411.18248,4.76174.09256,1.46515.275,1.64763,1.83276,1.55639.82249,0,1.73755-.18248,2.56269-.18248h4.30289c2.6579,0,5.40307.09124,8.05833.09124h14.10405Z"/></g></g></svg>